<svg width="78" height="15" viewBox="0 0 78 15" fill="none" xmlns="http://www.w3.org/2000/svg">
<g id="SVG">
<path id="Vector" d="M13.667 14.5808V1.89516H21.5881V3.59155H15.636V7.60941H21.0863V9.27107H15.636V14.5808H13.667ZM22.9147 2.88834C22.9147 2.28236 23.4061 1.79793 24.0138 1.79793C24.6198 1.79793 25.1129 2.28236 25.1129 2.88834C25.1129 3.48564 24.6215 3.97875 24.0138 3.97875C23.4061 3.97875 22.9147 3.48737 22.9147 2.88834ZM23.064 5.33309H24.9636V14.5808H23.064V5.33309ZM29.6551 3.14358V5.33309H31.4123V6.83675H29.6551V11.9346C29.6551 12.735 30.0058 13.0945 30.7802 13.0945C30.973 13.0945 31.282 13.0771 31.4036 13.0511V14.5547C31.1935 14.6068 30.7716 14.6433 30.3479 14.6433C28.4761 14.6433 27.7451 13.9314 27.7451 12.1464V6.83675H26.3995V5.33309H27.7451V3.14358H29.6551ZM33.0062 5.33309H34.8172V6.88015H34.8606C35.3624 5.82447 36.3469 5.17508 37.7707 5.17508C39.8109 5.17508 40.9794 6.47559 40.9794 8.59391V14.5808H39.0712V8.96374C39.0712 7.57468 38.4201 6.8107 37.1022 6.8107C35.7652 6.8107 34.904 7.76047 34.904 9.19294V14.5825H33.0045V5.33309H33.0062ZM50.5587 11.8634C50.2948 13.5511 48.6956 14.7561 46.5773 14.7561C43.8617 14.7561 42.2174 12.9191 42.2174 10.0003C42.2174 7.09893 43.8878 5.16466 46.4992 5.16466C49.0655 5.16466 50.6664 6.97565 50.6664 9.77982V10.4309H44.1343V10.5455C44.1343 12.1534 45.1014 13.2177 46.6225 13.2177C47.7042 13.2177 48.5046 12.6725 48.7581 11.8634H50.5587ZM44.1413 9.10439H48.7651C48.7217 7.68928 47.824 6.6961 46.4975 6.6961C45.1692 6.6961 44.2368 7.70664 44.1413 9.10439ZM55.5159 5.1664C57.669 5.1664 59.0667 6.36273 59.1292 8.0678H57.3443C57.2384 7.17186 56.5803 6.60929 55.5159 6.60929C54.488 6.60929 53.8022 7.11108 53.8022 7.84902C53.8022 8.42896 54.2241 8.82484 55.226 9.05403L56.7296 9.39609C58.6205 9.83538 59.341 10.5733 59.341 11.9103C59.341 13.598 57.7679 14.7579 55.5871 14.7579C53.2743 14.7579 51.8853 13.624 51.7099 11.8651H53.5903C53.7657 12.8323 54.4255 13.3063 55.5854 13.3063C56.7279 13.3063 57.4311 12.8323 57.4311 12.0752C57.4311 11.4779 57.089 11.1255 56.0768 10.8963L54.5731 10.5455C52.8142 10.141 51.9443 9.29712 51.9443 7.95147C51.9478 6.30022 53.3889 5.1664 55.5159 5.1664ZM64.1038 5.1664C66.2568 5.1664 67.6546 6.36273 67.7171 8.0678H65.9321C65.8262 7.17186 65.1682 6.60929 64.1038 6.60929C63.0759 6.60929 62.39 7.11108 62.39 7.84902C62.39 8.42896 62.812 8.82484 63.8138 9.05403L65.3175 9.39609C67.2083 9.83538 67.9289 10.5733 67.9289 11.9103C67.9289 13.598 66.3558 14.7579 64.175 14.7579C61.8622 14.7579 60.4731 13.624 60.2978 11.8651H62.1782C62.3536 12.8323 63.0134 13.3063 64.1732 13.3063C65.3157 13.3063 66.019 12.8323 66.019 12.0752C66.019 11.4779 65.6769 11.1255 64.6646 10.8963L63.161 10.5455C61.4021 10.141 60.5322 9.29712 60.5322 7.95147C60.5339 6.30022 61.9768 5.1664 64.1038 5.1664ZM74.3464 14.5929H72.6153V10.8251H69.028V9.11133H72.6153V5.34524H74.3464V9.11133H77.9423V10.8251H74.3464V14.5929ZM7.63676 3.1349C8.11773 2.55323 8.44068 1.7441 8.35213 0.940186C7.66107 0.967967 6.82416 1.40031 6.32757 1.98198C5.88308 2.49593 5.4924 3.32069 5.59832 4.10898C6.36925 4.16801 7.15754 3.71657 7.63676 3.1349ZM8.33477 4.26178C7.20268 4.17843 6.24249 4.8938 5.70771 4.8938C5.16424 4.8938 4.32559 4.27914 3.43833 4.2965C2.27152 4.31387 1.19673 4.9754 0.594229 6.02067C-0.617726 8.12336 0.285163 11.2401 1.46586 12.9469C2.04406 13.7803 2.73165 14.7214 3.63627 14.6867C4.50617 14.6519 4.83607 14.1241 5.88828 14.1241C6.9405 14.1241 7.23741 14.6867 8.15766 14.671C9.09528 14.6537 9.6891 13.8202 10.2621 12.9816C10.9254 12.0145 11.198 11.0769 11.2136 11.0265C11.1928 11.0178 9.38698 10.325 9.36962 8.2449C9.35399 6.50511 10.7899 5.66993 10.8542 5.62826C10.0381 4.42673 8.77927 4.29477 8.33477 4.26178Z" fill="black"/>
</g>
</svg>
